<mxfile host="app.diagrams.net" modified="2022-05-23T15:51:09.206Z" agent="5.0 (Macintosh; Intel Mac OS X 10_15_7) AppleWebKit/537.36 (KHTML, like Gecko) Chrome/101.0.4951.64 Safari/537.36" etag="7IaXFRd2GyXsgeK9FfXr" version="17.4.6" type="github" pages="2">
  <diagram id="kgpKYQtTHZ0yAKxKKP6v" name="Page-1">
    <mxGraphModel dx="742" dy="414" grid="1" gridSize="10" guides="1" tooltips="1" connect="1" arrows="1" fold="1" page="1" pageScale="1" pageWidth="850" pageHeight="1100" math="0" shadow="0">
      <root>
        <mxCell id="0" />
        <mxCell id="1" parent="0" />
        <mxCell id="eFRRsyU633BgQ31-RumB-13" value="&lt;h1&gt;&lt;u&gt;Share Peep:&lt;/u&gt;&lt;/h1&gt;" style="text;html=1;strokeColor=#0e8088;fillColor=#b0e3e6;spacing=5;spacingTop=-20;whiteSpace=wrap;overflow=hidden;rounded=0;fontSize=9;" vertex="1" parent="1">
          <mxGeometry x="90" y="810" width="720" height="230" as="geometry" />
        </mxCell>
        <mxCell id="eFRRsyU633BgQ31-RumB-12" value="&lt;h1&gt;&lt;u&gt;Load Peep:&lt;/u&gt;&lt;/h1&gt;" style="text;html=1;strokeColor=#9673a6;fillColor=#e1d5e7;spacing=5;spacingTop=-20;whiteSpace=wrap;overflow=hidden;rounded=0;fontSize=9;" vertex="1" parent="1">
          <mxGeometry x="90" y="630" width="720" height="170" as="geometry" />
        </mxCell>
        <mxCell id="jPQ_gMMJaXNUDKKce1v3-33" value="&lt;h1&gt;&lt;u&gt;Peep Creation:&lt;/u&gt;&lt;/h1&gt;" style="text;html=1;strokeColor=#6c8ebf;fillColor=#dae8fc;spacing=5;spacingTop=-20;whiteSpace=wrap;overflow=hidden;rounded=0;fontSize=9;" vertex="1" parent="1">
          <mxGeometry x="90" y="390" width="720" height="230" as="geometry" />
        </mxCell>
        <mxCell id="3nuBFxr9cyL0pnOWT2aG-1" value="User" style="shape=umlLifeline;perimeter=lifelinePerimeter;container=1;collapsible=0;recursiveResize=0;rounded=0;shadow=0;strokeWidth=1;" parent="1" vertex="1">
          <mxGeometry x="130" y="20" width="110" height="1060" as="geometry" />
        </mxCell>
        <mxCell id="jPQ_gMMJaXNUDKKce1v3-31" value="else:Â " style="verticalAlign=bottom;endArrow=block;shadow=0;strokeWidth=1;exitX=-0.003;exitY=0.171;exitDx=0;exitDy=0;exitPerimeter=0;fontSize=9;fontColor=#000000;strokeColor=#82b366;fillColor=#d5e8d4;edgeStyle=orthogonalEdgeStyle;entryX=0.204;entryY=-0.016;entryDx=0;entryDy=0;entryPerimeter=0;" edge="1" parent="3nuBFxr9cyL0pnOWT2aG-1" target="jPQ_gMMJaXNUDKKce1v3-33">
          <mxGeometry relative="1" as="geometry">
            <mxPoint x="174.99999999999983" y="320.0300000000001" as="sourcePoint" />
            <mxPoint x="110" y="350" as="targetPoint" />
          </mxGeometry>
        </mxCell>
        <mxCell id="jPQ_gMMJaXNUDKKce1v3-6" value="Selects CREATE/LOAD/SHARE opt" style="verticalAlign=bottom;endArrow=block;entryX=0;entryY=0;shadow=0;strokeWidth=1;" edge="1" parent="3nuBFxr9cyL0pnOWT2aG-1">
          <mxGeometry relative="1" as="geometry">
            <mxPoint x="60" y="129.0000000000001" as="sourcePoint" />
            <mxPoint x="230" y="129.0000000000001" as="targetPoint" />
          </mxGeometry>
        </mxCell>
        <mxCell id="3nuBFxr9cyL0pnOWT2aG-5" value="App" style="shape=umlLifeline;perimeter=lifelinePerimeter;container=1;collapsible=0;recursiveResize=0;rounded=0;shadow=0;strokeWidth=1;" parent="1" vertex="1">
          <mxGeometry x="300" y="20" width="150" height="1060" as="geometry" />
        </mxCell>
        <mxCell id="jPQ_gMMJaXNUDKKce1v3-26" value="&lt;span style=&quot;font-size: 11px ; background-color: rgb(255 , 255 , 255)&quot;&gt;Asks DB for stored userPin to match&lt;/span&gt;&lt;br style=&quot;padding: 0px ; margin: 0px ; font-size: 11px&quot;&gt;&lt;span style=&quot;font-size: 11px ; background-color: rgb(255 , 255 , 255)&quot;&gt;with user&#39;s input.&lt;/span&gt;" style="rounded=0;whiteSpace=wrap;html=1;" vertex="1" parent="3nuBFxr9cyL0pnOWT2aG-5">
          <mxGeometry x="-5" y="210" width="110" height="50" as="geometry" />
        </mxCell>
        <mxCell id="jPQ_gMMJaXNUDKKce1v3-30" value="&lt;span style=&quot;font-size: 11px ; background-color: rgb(255 , 255 , 255)&quot;&gt;Comparing pins.&lt;/span&gt;" style="rounded=0;whiteSpace=wrap;html=1;" vertex="1" parent="3nuBFxr9cyL0pnOWT2aG-5">
          <mxGeometry x="-5" y="270" width="110" height="50" as="geometry" />
        </mxCell>
        <mxCell id="eFRRsyU633BgQ31-RumB-17" value="&lt;span style=&quot;font-size: 11px;&quot;&gt;Asks DB for stored userPin to match&lt;/span&gt;&lt;br style=&quot;padding: 0px ; margin: 0px ; font-size: 11px&quot;&gt;&lt;span style=&quot;font-size: 11px;&quot;&gt;with user&#39;s input.&lt;/span&gt;" style="rounded=0;whiteSpace=wrap;html=1;labelBackgroundColor=none;fillColor=#dae8fc;strokeColor=#6c8ebf;" vertex="1" parent="3nuBFxr9cyL0pnOWT2aG-5">
          <mxGeometry x="20" y="497" width="110" height="50" as="geometry" />
        </mxCell>
        <mxCell id="3nuBFxr9cyL0pnOWT2aG-8" value="Presses &quot;START&quot; button" style="verticalAlign=bottom;endArrow=block;entryX=0;entryY=0;shadow=0;strokeWidth=1;" parent="1" edge="1">
          <mxGeometry relative="1" as="geometry">
            <mxPoint x="200" y="80" as="sourcePoint" />
            <mxPoint x="355" y="80.00000000000011" as="targetPoint" />
          </mxGeometry>
        </mxCell>
        <mxCell id="3nuBFxr9cyL0pnOWT2aG-9" value="Displays Menu Options" style="verticalAlign=bottom;endArrow=block;shadow=0;strokeWidth=1;" parent="1" edge="1">
          <mxGeometry relative="1" as="geometry">
            <mxPoint x="360" y="111" as="sourcePoint" />
            <mxPoint x="190" y="111" as="targetPoint" />
          </mxGeometry>
        </mxCell>
        <mxCell id="jPQ_gMMJaXNUDKKce1v3-2" value="Server" style="rounded=0;whiteSpace=wrap;html=1;" vertex="1" parent="1">
          <mxGeometry x="500" y="20" width="100" height="40" as="geometry" />
        </mxCell>
        <mxCell id="jPQ_gMMJaXNUDKKce1v3-3" value="Database" style="rounded=0;whiteSpace=wrap;html=1;" vertex="1" parent="1">
          <mxGeometry x="660" y="20" width="100" height="40" as="geometry" />
        </mxCell>
        <mxCell id="jPQ_gMMJaXNUDKKce1v3-4" value="" style="endArrow=none;dashed=1;html=1;rounded=0;entryX=0.5;entryY=1;entryDx=0;entryDy=0;" edge="1" parent="1" target="jPQ_gMMJaXNUDKKce1v3-2">
          <mxGeometry width="50" height="50" relative="1" as="geometry">
            <mxPoint x="540" y="1080" as="sourcePoint" />
            <mxPoint x="530" y="190" as="targetPoint" />
          </mxGeometry>
        </mxCell>
        <mxCell id="jPQ_gMMJaXNUDKKce1v3-5" value="" style="endArrow=none;dashed=1;html=1;rounded=0;entryX=0.5;entryY=1;entryDx=0;entryDy=0;startArrow=none;" edge="1" parent="1" source="jPQ_gMMJaXNUDKKce1v3-29">
          <mxGeometry width="50" height="50" relative="1" as="geometry">
            <mxPoint x="710" y="1080" as="sourcePoint" />
            <mxPoint x="709.71" y="60" as="targetPoint" />
          </mxGeometry>
        </mxCell>
        <mxCell id="jPQ_gMMJaXNUDKKce1v3-7" value="Asks for UserPin" style="verticalAlign=bottom;endArrow=block;shadow=0;strokeWidth=1;" edge="1" parent="1">
          <mxGeometry relative="1" as="geometry">
            <mxPoint x="354" y="190.0000000000001" as="sourcePoint" />
            <mxPoint x="190" y="190" as="targetPoint" />
          </mxGeometry>
        </mxCell>
        <mxCell id="jPQ_gMMJaXNUDKKce1v3-12" value="(Returning stored&#xa;pin)" style="verticalAlign=bottom;endArrow=open;dashed=1;endSize=8;exitX=0;exitY=1;shadow=0;strokeWidth=1;exitDx=0;exitDy=0;" edge="1" parent="1" source="jPQ_gMMJaXNUDKKce1v3-29">
          <mxGeometry relative="1" as="geometry">
            <mxPoint x="420" y="310" as="targetPoint" />
            <mxPoint x="676.72" y="299.15999999999997" as="sourcePoint" />
          </mxGeometry>
        </mxCell>
        <mxCell id="jPQ_gMMJaXNUDKKce1v3-18" value="" style="verticalAlign=bottom;endArrow=open;dashed=1;endSize=8;exitX=1;exitY=0.5;shadow=0;strokeWidth=1;exitDx=0;exitDy=0;fillColor=none;" edge="1" parent="1" source="jPQ_gMMJaXNUDKKce1v3-26">
          <mxGeometry relative="1" as="geometry">
            <mxPoint x="670" y="255" as="targetPoint" />
            <mxPoint x="420" y="259.9999999999999" as="sourcePoint" />
          </mxGeometry>
        </mxCell>
        <mxCell id="jPQ_gMMJaXNUDKKce1v3-28" value="(Requesting Stored&lt;br&gt;Pin)" style="edgeLabel;html=1;align=center;verticalAlign=middle;resizable=0;points=[];fillColor=none;" vertex="1" connectable="0" parent="jPQ_gMMJaXNUDKKce1v3-18">
          <mxGeometry x="-0.4606" relative="1" as="geometry">
            <mxPoint x="21" y="-15" as="offset" />
          </mxGeometry>
        </mxCell>
        <mxCell id="jPQ_gMMJaXNUDKKce1v3-23" value="If (false){console.log&#xa;(&quot;You have failed the&#xa;vibe check. :c&quot;)}" style="verticalAlign=bottom;endArrow=block;shadow=0;strokeWidth=1;exitX=0;exitY=0;exitDx=0;exitDy=0;fontSize=9;fontColor=#808080;strokeColor=#b85450;fillColor=#f8cecc;" edge="1" parent="1" source="jPQ_gMMJaXNUDKKce1v3-30">
          <mxGeometry relative="1" as="geometry">
            <mxPoint x="300" y="300" as="sourcePoint" />
            <mxPoint x="190" y="290" as="targetPoint" />
            <Array as="points" />
          </mxGeometry>
        </mxCell>
        <mxCell id="jPQ_gMMJaXNUDKKce1v3-22" value="Enters UserPin" style="verticalAlign=bottom;endArrow=block;shadow=0;strokeWidth=1;entryX=0;entryY=0;entryDx=0;entryDy=0;" edge="1" parent="1" target="jPQ_gMMJaXNUDKKce1v3-26">
          <mxGeometry relative="1" as="geometry">
            <mxPoint x="185" y="230" as="sourcePoint" />
            <mxPoint x="305" y="220" as="targetPoint" />
            <Array as="points" />
          </mxGeometry>
        </mxCell>
        <mxCell id="jPQ_gMMJaXNUDKKce1v3-34" value="&quot;Use a pre-made base or&#xa;create your own?&quot;" style="verticalAlign=bottom;endArrow=block;entryX=0;entryY=0;shadow=0;strokeWidth=1;labelBackgroundColor=none;" edge="1" parent="1">
          <mxGeometry relative="1" as="geometry">
            <mxPoint x="370" y="440.0000000000001" as="sourcePoint" />
            <mxPoint x="200" y="440.0000000000001" as="targetPoint" />
          </mxGeometry>
        </mxCell>
        <mxCell id="eFRRsyU633BgQ31-RumB-3" value="" style="verticalAlign=bottom;endArrow=block;shadow=0;strokeWidth=1;labelBackgroundColor=none;" edge="1" parent="1">
          <mxGeometry relative="1" as="geometry">
            <mxPoint x="200" y="470" as="sourcePoint" />
            <mxPoint x="370" y="470" as="targetPoint" />
          </mxGeometry>
        </mxCell>
        <mxCell id="eFRRsyU633BgQ31-RumB-7" value="&lt;font color=&quot;#808080&quot; style=&quot;font-size: 10px;&quot;&gt;&quot;Make my own.&quot;&lt;/font&gt;" style="edgeLabel;html=1;align=center;verticalAlign=middle;resizable=0;points=[];fontSize=10;fontColor=#000000;labelBackgroundColor=none;" vertex="1" connectable="0" parent="eFRRsyU633BgQ31-RumB-3">
          <mxGeometry x="-0.2373" y="3" relative="1" as="geometry">
            <mxPoint x="15" y="-6" as="offset" />
          </mxGeometry>
        </mxCell>
        <mxCell id="eFRRsyU633BgQ31-RumB-8" value="" style="verticalAlign=bottom;endArrow=block;shadow=0;strokeWidth=1;labelBackgroundColor=none;dashed=1;" edge="1" parent="1">
          <mxGeometry relative="1" as="geometry">
            <mxPoint x="370" y="504.71000000000004" as="sourcePoint" />
            <mxPoint x="200" y="504.71000000000004" as="targetPoint" />
          </mxGeometry>
        </mxCell>
        <mxCell id="eFRRsyU633BgQ31-RumB-9" value="(Returns Icon Editor interface)" style="edgeLabel;html=1;align=center;verticalAlign=middle;resizable=0;points=[];fontSize=10;fontColor=#000000;labelBackgroundColor=none;" vertex="1" connectable="0" parent="eFRRsyU633BgQ31-RumB-8">
          <mxGeometry x="-0.2373" y="3" relative="1" as="geometry">
            <mxPoint x="-25" y="-13" as="offset" />
          </mxGeometry>
        </mxCell>
        <mxCell id="eFRRsyU633BgQ31-RumB-10" value="" style="verticalAlign=bottom;endArrow=block;shadow=0;strokeWidth=1;labelBackgroundColor=none;" edge="1" parent="1">
          <mxGeometry relative="1" as="geometry">
            <mxPoint x="200" y="540" as="sourcePoint" />
            <mxPoint x="320" y="540" as="targetPoint" />
          </mxGeometry>
        </mxCell>
        <mxCell id="eFRRsyU633BgQ31-RumB-11" value="&lt;font style=&quot;font-size: 10px&quot;&gt;Saving changes.&lt;/font&gt;" style="edgeLabel;html=1;align=center;verticalAlign=middle;resizable=0;points=[];fontSize=10;fontColor=#000000;labelBackgroundColor=none;" vertex="1" connectable="0" parent="eFRRsyU633BgQ31-RumB-10">
          <mxGeometry x="-0.2373" y="3" relative="1" as="geometry">
            <mxPoint x="15" y="-6" as="offset" />
          </mxGeometry>
        </mxCell>
        <mxCell id="eFRRsyU633BgQ31-RumB-15" value="" style="verticalAlign=bottom;endArrow=block;shadow=0;strokeWidth=1;labelBackgroundColor=none;" edge="1" parent="1">
          <mxGeometry relative="1" as="geometry">
            <mxPoint x="430" y="540" as="sourcePoint" />
            <mxPoint x="530" y="540" as="targetPoint" />
          </mxGeometry>
        </mxCell>
        <mxCell id="eFRRsyU633BgQ31-RumB-16" value="&lt;font style=&quot;font-size: 10px&quot;&gt;Saving changes.&lt;/font&gt;" style="edgeLabel;html=1;align=center;verticalAlign=middle;resizable=0;points=[];fontSize=10;fontColor=#000000;labelBackgroundColor=none;" vertex="1" connectable="0" parent="eFRRsyU633BgQ31-RumB-15">
          <mxGeometry x="-0.2373" y="3" relative="1" as="geometry">
            <mxPoint x="15" y="-6" as="offset" />
          </mxGeometry>
        </mxCell>
        <mxCell id="jPQ_gMMJaXNUDKKce1v3-29" value="&lt;span style=&quot;font-size: 11px ; background-color: rgb(255 , 255 , 255)&quot;&gt;UserPin Column&lt;/span&gt;" style="rounded=0;whiteSpace=wrap;html=1;" vertex="1" parent="1">
          <mxGeometry x="675" y="255" width="70" height="55" as="geometry" />
        </mxCell>
        <mxCell id="eFRRsyU633BgQ31-RumB-19" value="" style="endArrow=none;dashed=1;html=1;rounded=0;entryX=0.5;entryY=1;entryDx=0;entryDy=0;" edge="1" parent="1" target="jPQ_gMMJaXNUDKKce1v3-29">
          <mxGeometry width="50" height="50" relative="1" as="geometry">
            <mxPoint x="710" y="1080" as="sourcePoint" />
            <mxPoint x="709.7100000000003" y="60" as="targetPoint" />
          </mxGeometry>
        </mxCell>
      </root>
    </mxGraphModel>
  </diagram>
  <diagram id="gkDrO4Kp0XroOVm1pHH_" name="Page-2">
    <mxGraphModel dx="433" dy="241" grid="1" gridSize="10" guides="1" tooltips="1" connect="1" arrows="1" fold="1" page="1" pageScale="1" pageWidth="1169" pageHeight="827" math="0" shadow="0">
      <root>
        <mxCell id="0" />
        <mxCell id="1" parent="0" />
        <mxCell id="J2AvsEn7xInIULB-ENyG-1" value="Eleanor has gone to the Dentist. @ her on Discord/Slack if you need her. c: Back at 15:00" style="rounded=0;whiteSpace=wrap;html=1;fontSize=19;fillColor=#f8cecc;strokeColor=#b85450;fontColor=#66CC00;" vertex="1" parent="1">
          <mxGeometry x="270" y="230" width="200" height="130" as="geometry" />
        </mxCell>
      </root>
    </mxGraphModel>
  </diagram>
</mxfile>
